<svg version="1.1" id="Layer_1" xmlns="http://www.w3.org/2000/svg" xmlns:xlink="http://www.w3.org/1999/xlink" x="0px" y="0px"
	 width="100%" viewBox="0 0 1104 1100" enable-background="new 0 0 1104 1100" xml:space="preserve">
<path fill="#88CDE9" opacity="1.000000" stroke="none" 
	d="
M613.000000,1101.000000 
	C408.689728,1101.000000 204.879456,1101.000000 1.034589,1101.000000 
	C1.034589,734.397888 1.034589,367.795746 1.034589,1.096811 
	C368.893829,1.096811 736.787659,1.096811 1104.840820,1.096811 
	C1104.840820,367.666626 1104.840820,734.333313 1104.840820,1101.000000 
	C941.128662,1101.000000 777.314331,1101.000000 613.000000,1101.000000 
M435.736908,644.806641 
	C445.046204,647.778198 454.080017,645.792175 463.259674,643.765747 
	C467.448517,642.840942 472.251343,642.609619 476.343994,643.693604 
	C495.417633,648.745667 512.794373,645.529907 529.052734,634.615784 
	C530.438843,633.685242 533.147461,633.564880 534.724121,634.253418 
	C556.131104,643.601379 577.948059,648.521057 601.186462,641.749146 
	C603.934753,640.948242 607.095276,640.657532 609.895691,641.130676 
	C615.457764,642.070435 620.856934,643.940491 626.403381,645.012573 
	C642.887634,648.199158 658.087097,644.151733 672.221985,635.836731 
	C675.413025,633.959534 677.564819,634.217346 680.853455,635.223572 
	C690.519897,638.181274 700.287781,641.753967 710.233887,642.639771 
	C727.176331,644.148804 743.377747,640.685425 756.954651,629.273071 
	C758.666870,627.833801 760.222778,626.507568 762.524048,628.592041 
	C773.994568,638.982178 788.240784,642.871643 802.959229,645.495544 
	C818.366577,648.242249 832.649475,644.527954 846.082642,637.181885 
	C856.202209,631.647766 862.474731,622.379822 868.161255,612.583862 
	C868.766052,613.078918 869.208008,613.324646 869.494324,613.691711 
	C886.164734,635.061951 909.409302,643.153137 935.148132,646.123291 
	C947.331299,647.529114 958.987305,644.510132 970.514832,641.232178 
	C1001.605896,632.391479 1021.970886,612.831360 1030.689453,581.281799 
	C1036.698853,559.535828 1032.698608,540.213501 1018.515320,522.854187 
	C1017.075989,521.092468 1015.476257,519.461975 1014.128052,517.967041 
	C1016.721497,513.285583 1019.890808,509.178223 1021.407715,504.531403 
	C1026.445068,489.100250 1029.878052,473.724762 1024.469604,457.196808 
	C1020.899170,446.286041 1015.319336,437.289062 1007.181152,429.730652 
	C992.981323,416.542511 974.908447,413.110138 956.605591,410.996033 
	C940.903442,409.182312 925.814697,413.290314 910.971008,417.749847 
	C904.696838,419.634796 899.764893,420.197144 892.995117,417.188263 
	C878.421936,410.711029 862.350769,408.879700 846.487000,411.370392 
	C823.205139,415.025726 800.087585,414.191864 776.854736,411.497620 
	C758.668152,409.388550 741.041199,411.732910 724.186401,419.193604 
	C722.993225,419.721741 721.310608,419.768616 720.042480,419.398621 
	C713.352112,417.446625 706.797424,414.995300 700.056335,413.257629 
	C679.470703,407.951263 660.462463,411.615936 643.421692,424.330658 
	C638.552856,427.963531 634.307129,432.431458 629.392944,436.861481 
	C627.910339,435.754852 625.947571,434.523529 624.258545,432.990601 
	C614.610657,424.234314 602.514526,420.942139 590.270203,420.264740 
	C576.201233,419.486389 562.488342,422.829315 550.553162,431.142456 
	C548.493835,432.576843 547.101440,433.728943 544.700439,431.257080 
	C535.555603,421.842224 524.554749,416.060242 511.594177,412.998505 
	C493.592651,408.745880 477.063751,411.660370 460.949188,419.877075 
	C459.271545,420.732513 456.634735,420.759247 454.815399,420.116425 
	C441.360809,415.362732 428.055786,416.068634 414.747955,420.575897 
	C413.647705,420.948486 412.482605,421.441742 411.368591,421.393585 
	C409.344543,421.306152 406.959412,421.450989 405.382843,420.456238 
	C395.488098,414.213013 384.275970,411.669952 373.096069,411.162201 
	C356.097717,410.390076 340.693024,415.940216 328.005737,427.816406 
	C326.376099,429.341797 325.028809,430.956116 322.526672,429.025818 
	C310.542511,419.780212 296.134979,416.765137 281.889771,413.253662 
	C259.938538,407.842621 238.997833,411.908752 218.322113,419.431030 
	C216.719025,420.014313 214.608688,419.773346 212.877396,419.341309 
	C202.079910,416.646729 191.435135,412.019928 180.531158,411.329926 
	C152.439163,409.552338 125.880424,415.190063 103.124603,433.246338 
	C89.050842,444.413574 79.507812,458.314148 74.134254,475.751892 
	C68.047989,495.502380 70.535217,514.231018 77.583946,532.798950 
	C79.160034,536.950684 79.511917,540.402039 78.498192,544.663025 
	C75.937424,555.426758 72.696625,565.942749 75.044815,577.553467 
	C78.548294,594.876526 85.024147,610.301208 98.073036,622.491882 
	C113.997986,637.369324 133.765732,643.296143 154.719711,646.068726 
	C169.479156,648.021606 183.606583,643.951965 197.292511,639.471985 
	C205.771515,636.696472 212.311401,636.048401 221.244278,639.773254 
	C236.199768,646.009583 252.453018,648.607117 269.128815,645.018555 
	C289.145782,640.711060 308.696564,635.653442 324.878876,622.128845 
	C327.138885,620.239990 329.705780,618.718445 332.139648,617.020569 
	C333.448761,618.118347 334.440765,619.000488 335.484009,619.817261 
	C346.388824,628.354614 357.280090,636.857666 371.324280,639.852417 
	C383.491760,642.446899 395.665680,647.282532 408.130829,643.606018 
	C417.497498,640.843445 426.081024,641.901123 435.736908,644.806641 
M802.031616,685.593872 
	C802.031616,693.128906 802.031616,700.663940 802.031616,708.198975 
	C801.608398,708.277832 801.185242,708.356628 800.762024,708.435486 
	C800.011841,707.055969 799.188843,705.710510 798.523438,704.291199 
	C794.710510,696.158813 790.765564,688.081726 787.218811,679.833862 
	C785.463867,675.753052 782.376282,675.708923 778.997192,676.184082 
	C775.387817,676.691711 776.111389,679.701721 776.087769,682.093506 
	C776.027039,688.250305 776.066040,694.408081 776.067261,700.565491 
	C776.068970,708.886230 776.097107,717.207153 776.061462,725.527710 
	C776.049744,728.259583 776.882507,729.933105 780.006958,730.037720 
	C783.194031,730.144409 784.677368,728.777405 784.691284,725.684448 
	C784.718323,719.693726 784.720947,713.702820 784.729675,707.712036 
	C784.734375,704.495422 784.730530,701.278748 784.730530,698.062134 
	C786.643433,699.253174 787.460693,700.616272 788.132629,702.047546 
	C791.949341,710.178284 795.925903,718.242432 799.444885,726.500977 
	C801.262878,730.767639 804.663269,730.550781 807.697449,729.673706 
	C809.084839,729.272644 810.512634,726.236694 810.546265,724.370911 
	C810.788635,710.895569 810.680603,697.413940 810.677307,683.934265 
	C810.676941,682.603577 810.678650,681.270386 810.602661,679.942688 
	C810.433228,676.984436 808.537964,675.481995 805.956116,676.250732 
	C804.404663,676.712708 802.972534,678.604675 802.164795,680.197754 
	C801.559692,681.391174 802.036560,683.133118 802.031616,685.593872 
M348.730133,708.545166 
	C348.730133,705.038879 348.730133,701.532593 348.730133,698.026306 
	C350.726471,699.337524 351.519196,700.741089 352.201569,702.196411 
	C356.014404,710.328247 359.975586,718.397278 363.520569,726.644897 
	C365.248383,730.664734 368.448883,730.479065 371.379242,729.743103 
	C372.765320,729.394958 374.494080,726.806824 374.519836,725.208618 
	C374.758698,710.402771 374.661163,695.591492 374.657623,680.781799 
	C374.656921,677.845398 373.527679,676.075989 370.250397,676.049194 
	C366.886169,676.021729 365.990875,677.820496 366.014404,680.793030 
	C366.077637,688.779785 366.051666,696.767639 366.007812,704.754700 
	C366.001282,705.943481 365.706848,707.130615 365.366241,709.640015 
	C363.952881,706.993835 363.121460,705.593201 362.434326,704.124939 
	C358.627441,695.990417 354.708313,687.903442 351.133972,679.667175 
	C349.346100,675.547485 345.991882,675.414795 342.884094,676.403870 
	C341.513855,676.840027 340.218872,679.894714 340.189117,681.781006 
	C339.965973,695.921753 340.073090,710.067566 340.062927,724.211792 
	C340.060822,727.142395 339.867798,729.973877 344.188873,730.045471 
	C348.751801,730.121155 348.715271,727.126892 348.724670,724.006836 
	C348.739197,719.181213 348.729004,714.355469 348.730133,708.545166 
M310.068970,704.500000 
	C310.068665,697.009399 310.077362,689.518860 310.063446,682.028259 
	C310.058197,679.205627 310.561432,676.129272 306.140747,676.060669 
	C301.402618,675.987183 301.943054,679.262146 301.938568,682.261658 
	C301.930328,687.754761 301.935852,693.247803 301.935699,698.740906 
	C301.935608,701.960632 301.935669,705.180420 301.935669,708.400146 
	C301.433594,708.494141 300.931519,708.588074 300.429443,708.682007 
	C299.361389,706.537598 298.249634,704.413635 297.233154,702.244995 
	C293.632111,694.562317 289.948639,686.914978 286.532593,679.150269 
	C284.882294,675.399048 281.774689,675.652039 278.984344,676.331543 
	C277.718781,676.639709 276.128937,679.039612 276.108643,680.510254 
	C275.899750,695.654907 275.885132,710.805237 276.149261,725.948181 
	C276.173065,727.312317 278.308594,729.375061 279.837372,729.815552 
	C282.540985,730.594421 284.136566,729.003418 284.111908,725.958801 
	C284.049835,718.302368 284.080231,710.644897 284.119720,702.988098 
	C284.128632,701.258301 284.325439,699.529419 284.435730,697.800110 
	C284.854187,697.700928 285.272614,697.601746 285.691040,697.502563 
	C286.679352,699.500549 287.706085,701.480591 288.649048,703.499756 
	C292.169006,711.036926 295.865570,718.501282 299.081940,726.166687 
	C300.804138,730.271057 303.822845,730.362122 307.222107,729.894958 
	C310.942078,729.383728 309.999786,726.303772 310.035980,723.976196 
	C310.131744,717.818787 310.068878,711.658875 310.068970,704.500000 
M407.710602,719.674927 
	C412.089417,727.538940 418.799072,731.062012 427.671082,729.766846 
	C436.253754,728.513794 440.989349,722.763916 443.367523,714.865723 
	C445.832794,706.678223 445.754303,698.443237 443.052216,690.307068 
	C440.148621,681.564087 433.381500,676.255310 425.132660,676.101929 
	C416.643188,675.944031 409.750671,680.680054 406.535583,689.351379 
	C402.849915,699.291687 403.126678,709.238586 407.710602,719.674927 
M728.974609,676.274841 
	C718.347900,675.710876 711.531372,679.775818 708.016174,689.451294 
	C704.673035,698.653015 704.565918,708.133118 708.173767,717.254944 
	C711.202759,724.913208 716.845886,729.788330 725.568359,729.970337 
	C734.204529,730.150513 740.598755,726.004089 743.467590,718.191528 
	C745.529175,712.577454 746.663025,706.196655 746.395203,700.239502 
	C745.785828,686.685547 740.223511,679.469177 728.974609,676.274841 
M572.690063,710.742981 
	C569.969849,700.621155 567.186584,690.515625 564.567688,680.367676 
	C563.783569,677.329224 562.315186,675.971619 559.015503,675.969971 
	C555.687561,675.968262 554.290466,677.403748 553.503479,680.417175 
	C549.635742,695.226135 545.598328,709.990784 541.759216,724.806946 
	C541.396301,726.207581 541.471863,728.719788 542.263428,729.199890 
	C543.630371,730.028992 546.022949,730.296936 547.417603,729.624023 
	C548.739014,728.986511 549.287170,726.808960 550.256958,725.363403 
	C551.292908,723.819153 552.275269,721.208740 553.542114,721.041504 
	C557.445251,720.526062 561.624023,720.360107 565.377319,721.312805 
	C566.857239,721.688416 567.036316,725.852173 568.653381,727.417236 
	C570.137939,728.853943 572.759827,729.115295 574.880615,729.894531 
	C575.450439,728.266602 576.735291,726.503174 576.457214,725.035950 
	C575.592590,720.473145 574.135315,716.022766 572.690063,710.742981 
M485.988770,687.403992 
	C485.253845,684.675720 484.500153,681.952332 483.788727,679.217957 
	C482.861359,675.653687 479.949890,675.419067 477.500763,676.413025 
	C476.365326,676.873779 475.319489,679.891602 475.696045,681.380066 
	C479.405060,696.040955 483.455536,710.614990 487.323639,725.236328 
	C488.126984,728.273010 489.277008,730.132202 492.989655,730.131409 
	C496.693176,730.130615 497.865326,728.293274 498.669006,725.249207 
	C502.487213,710.786926 506.405914,696.351135 510.275574,681.902344 
	C510.871307,679.678040 512.036926,677.067444 508.578674,676.255005 
	C505.630188,675.562256 502.892822,675.884949 502.055939,679.685364 
	C501.448853,682.442322 500.654602,685.159180 499.906799,687.883850 
	C497.829590,695.452332 495.733002,703.015564 493.644073,710.580872 
	C493.179169,710.568787 492.714264,710.556702 492.249390,710.544617 
	C490.218445,703.096252 488.187531,695.647888 485.988770,687.403992 
M866.619385,718.231445 
	C866.691711,711.220398 863.425842,706.008850 858.312378,701.424927 
	C855.170776,698.608765 852.177612,695.263611 850.305603,691.556213 
	C849.438599,689.839111 850.668457,685.325439 852.242920,684.473694 
	C855.560364,682.678894 857.305908,685.184998 858.346313,688.690125 
	C858.704041,689.895447 861.944214,690.667786 863.907715,690.756897 
	C864.648499,690.790466 866.229614,688.303894 866.178284,687.015930 
	C865.957703,681.477417 862.545532,677.704102 857.255188,676.463318 
	C851.506531,675.114990 845.699951,676.912109 842.870361,680.915466 
	C839.802063,685.256226 839.728760,693.624634 843.349792,698.382141 
	C846.037598,701.913574 849.713440,704.679382 852.549988,708.115784 
	C854.483704,710.458435 856.230042,713.212097 857.129028,716.074524 
	C857.904236,718.542603 857.636841,721.670105 853.812927,722.032776 
	C850.412231,722.355225 848.952942,720.398315 848.914734,717.219055 
	C848.867310,713.280884 846.197815,713.151855 843.374451,713.407288 
	C840.066895,713.706482 840.061646,716.081421 840.363098,718.565552 
	C841.212891,725.567017 845.308228,729.579041 852.004944,729.971008 
	C860.502075,730.468384 864.436890,727.494324 866.619385,718.231445 
M618.052246,717.468933 
	C618.052734,719.796448 618.103088,722.125366 618.041565,724.451233 
	C617.959717,727.544861 618.232849,730.073914 622.407349,730.070190 
	C626.583984,730.066467 626.792725,727.509460 626.782532,724.435486 
	C626.747437,713.795410 626.768066,703.155151 626.770874,692.514954 
	C626.772644,685.695496 626.765869,685.620972 633.741943,684.741516 
	C636.641724,684.375977 638.255127,682.744507 637.585449,680.142273 
	C637.179993,678.566711 635.212280,676.309631 633.853333,676.242432 
	C626.224426,675.865295 618.557495,675.865723 610.928711,676.243835 
	C609.581421,676.310608 607.542725,678.605713 607.227661,680.156921 
	C606.426758,684.099609 609.341980,684.979370 612.486267,684.703003 
	C616.957764,684.310059 618.247986,686.293457 618.125488,690.545959 
	C617.876587,699.183899 618.051941,707.834167 618.052246,717.468933 
M675.911499,684.628784 
	C675.911377,683.964294 675.924255,683.299561 675.908997,682.635437 
	C675.837769,679.532166 676.594116,676.022949 671.559753,676.009277 
	C666.540222,675.995605 667.178345,679.479553 667.173645,682.600342 
	C667.152710,696.554504 667.182556,710.508789 667.152405,724.462891 
	C667.145752,727.538818 667.364624,730.085144 671.537659,730.078247 
	C675.689819,730.071411 675.937256,727.565186 675.927490,724.466797 
	C675.886719,711.509460 675.910950,698.551941 675.911499,684.628784 
M237.970596,702.500000 
	C237.973099,710.139526 238.031967,717.779724 237.950272,725.418335 
	C237.917770,728.458130 238.906387,730.088989 242.243027,730.022400 
	C245.408112,729.959167 246.120941,728.244446 246.113617,725.524841 
	C246.073410,710.578003 246.060226,695.630920 246.124741,680.684204 
	C246.137848,677.645630 245.172409,675.983398 241.848190,676.059204 
	C238.724777,676.130432 237.935989,677.836792 237.959213,680.574463 
	C238.018372,687.549133 237.973679,694.524780 237.970596,702.500000 
z"/>
<path fill="#FEFEFF" opacity="1.000000" stroke="none" 
	d="
M435.324432,644.719788 
	C426.081024,641.901123 417.497498,640.843445 408.130829,643.606018 
	C395.665680,647.282532 383.491760,642.446899 371.324280,639.852417 
	C357.280090,636.857666 346.388824,628.354614 335.484009,619.817261 
	C334.440765,619.000488 333.448761,618.118347 332.139648,617.020569 
	C329.705780,618.718445 327.138885,620.239990 324.878876,622.128845 
	C308.696564,635.653442 289.145782,640.711060 269.128815,645.018555 
	C252.453018,648.607117 236.199768,646.009583 221.244278,639.773254 
	C212.311401,636.048401 205.771515,636.696472 197.292511,639.471985 
	C183.606583,643.951965 169.479156,648.021606 154.719711,646.068726 
	C133.765732,643.296143 113.997986,637.369324 98.073036,622.491882 
	C85.024147,610.301208 78.548294,594.876526 75.044815,577.553467 
	C72.696625,565.942749 75.937424,555.426758 78.498192,544.663025 
	C79.511917,540.402039 79.160034,536.950684 77.583946,532.798950 
	C70.535217,514.231018 68.047989,495.502380 74.134254,475.751892 
	C79.507812,458.314148 89.050842,444.413574 103.124603,433.246338 
	C125.880424,415.190063 152.439163,409.552338 180.531158,411.329926 
	C191.435135,412.019928 202.079910,416.646729 212.877396,419.341309 
	C214.608688,419.773346 216.719025,420.014313 218.322113,419.431030 
	C238.997833,411.908752 259.938538,407.842621 281.889771,413.253662 
	C296.134979,416.765137 310.542511,419.780212 322.526672,429.025818 
	C325.028809,430.956116 326.376099,429.341797 328.005737,427.816406 
	C340.693024,415.940216 356.097717,410.390076 373.096069,411.162201 
	C384.275970,411.669952 395.488098,414.213013 405.382843,420.456238 
	C406.959412,421.450989 409.344543,421.306152 411.368591,421.393585 
	C412.482605,421.441742 413.647705,420.948486 414.747955,420.575897 
	C428.055786,416.068634 441.360809,415.362732 454.815399,420.116425 
	C456.634735,420.759247 459.271545,420.732513 460.949188,419.877075 
	C477.063751,411.660370 493.592651,408.745880 511.594177,412.998505 
	C524.554749,416.060242 535.555603,421.842224 544.700439,431.257080 
	C547.101440,433.728943 548.493835,432.576843 550.553162,431.142456 
	C562.488342,422.829315 576.201233,419.486389 590.270203,420.264740 
	C602.514526,420.942139 614.610657,424.234314 624.258545,432.990601 
	C625.947571,434.523529 627.910339,435.754852 629.392944,436.861481 
	C634.307129,432.431458 638.552856,427.963531 643.421692,424.330658 
	C660.462463,411.615936 679.470703,407.951263 700.056335,413.257629 
	C706.797424,414.995300 713.352112,417.446625 720.042480,419.398621 
	C721.310608,419.768616 722.993225,419.721741 724.186401,419.193604 
	C741.041199,411.732910 758.668152,409.388550 776.854736,411.497620 
	C800.087585,414.191864 823.205139,415.025726 846.487000,411.370392 
	C862.350769,408.879700 878.421936,410.711029 892.995117,417.188263 
	C899.764893,420.197144 904.696838,419.634796 910.971008,417.749847 
	C925.814697,413.290314 940.903442,409.182312 956.605591,410.996033 
	C974.908447,413.110138 992.981323,416.542511 1007.181152,429.730652 
	C1015.319336,437.289062 1020.899170,446.286041 1024.469604,457.196808 
	C1029.878052,473.724762 1026.445068,489.100250 1021.407715,504.531403 
	C1019.890808,509.178223 1016.721497,513.285583 1014.128052,517.967041 
	C1015.476257,519.461975 1017.075989,521.092468 1018.515320,522.854187 
	C1032.698608,540.213501 1036.698853,559.535828 1030.689453,581.281799 
	C1021.970886,612.831360 1001.605896,632.391479 970.514832,641.232178 
	C958.987305,644.510132 947.331299,647.529114 935.148132,646.123291 
	C909.409302,643.153137 886.164734,635.061951 869.494324,613.691711 
	C869.208008,613.324646 868.766052,613.078918 868.161255,612.583862 
	C862.474731,622.379822 856.202209,631.647766 846.082642,637.181885 
	C832.649475,644.527954 818.366577,648.242249 802.959229,645.495544 
	C788.240784,642.871643 773.994568,638.982178 762.524048,628.592041 
	C760.222778,626.507568 758.666870,627.833801 756.954651,629.273071 
	C743.377747,640.685425 727.176331,644.148804 710.233887,642.639771 
	C700.287781,641.753967 690.519897,638.181274 680.853455,635.223572 
	C677.564819,634.217346 675.413025,633.959534 672.221985,635.836731 
	C658.087097,644.151733 642.887634,648.199158 626.403381,645.012573 
	C620.856934,643.940491 615.457764,642.070435 609.895691,641.130676 
	C607.095276,640.657532 603.934753,640.948242 601.186462,641.749146 
	C577.948059,648.521057 556.131104,643.601379 534.724121,634.253418 
	C533.147461,633.564880 530.438843,633.685242 529.052734,634.615784 
	C512.794373,645.529907 495.417633,648.745667 476.343994,643.693604 
	C472.251343,642.609619 467.448517,642.840942 463.259674,643.765747 
	C454.080017,645.792175 445.046204,647.778198 435.324432,644.719788 
M728.750732,599.998962 
	C734.120178,597.039368 736.393616,591.848999 738.265198,586.475342 
	C745.262634,566.384094 745.811890,545.754883 742.585938,524.991943 
	C739.528320,505.312195 732.423035,487.143158 720.090027,471.317902 
	C712.210693,461.207428 702.458496,453.644501 689.412415,451.523712 
	C682.048950,450.326752 674.793274,450.498108 668.083923,456.057434 
	C660.381165,461.621216 656.822998,469.894653 653.822754,478.402618 
	C645.897949,500.876038 636.897278,522.834290 625.080811,543.612732 
	C619.224243,553.911255 615.064514,564.947327 613.317688,576.828674 
	C610.974915,592.763123 619.374695,604.914734 633.750671,605.909607 
	C648.086975,606.901733 660.605042,598.286560 662.739197,584.098145 
	C664.099426,575.055420 663.477356,565.519165 662.431213,556.354126 
	C660.723206,541.390686 662.305847,527.158813 668.763367,513.551514 
	C671.157837,508.506042 674.035400,502.968964 680.516479,503.702393 
	C686.929932,504.428192 689.473999,510.396301 689.858276,515.843262 
	C690.507446,525.042358 690.449829,534.404358 689.485901,543.571289 
	C688.587097,552.119629 685.625854,560.436218 684.469788,568.976257 
	C683.018494,579.697205 684.779602,590.040527 694.538208,596.490417 
	C704.847778,603.304565 716.169128,605.645264 728.750732,599.998962 
M456.657257,603.807800 
	C462.742828,599.853271 464.842133,595.212891 463.396973,588.110535 
	C461.151764,577.076355 456.343964,566.436768 457.918732,554.818115 
	C459.950775,539.825745 462.389008,524.887146 464.313232,509.881866 
	C466.037476,496.435913 465.188812,483.241089 458.375397,471.057220 
	C451.073090,457.998962 436.362549,453.104309 424.276886,460.033569 
	C418.571045,463.319855 414.621765,468.421326 414.067719,474.679810 
	C413.375092,482.503967 413.807373,490.542297 414.773163,498.362305 
	C415.541168,504.580444 418.137268,510.549072 419.394226,516.735657 
	C421.654388,527.859802 421.551788,538.736511 413.082642,547.657837 
	C404.975677,556.197632 395.994019,554.249023 391.828033,543.310852 
	C387.793365,532.717590 388.938202,521.971619 391.227722,511.346344 
	C392.695374,504.535400 395.307037,497.979279 397.125671,491.233368 
	C399.199615,483.540314 399.651276,475.846436 396.297302,468.268738 
	C391.811890,458.134644 380.232086,450.602509 369.683624,451.129364 
	C359.731171,451.626434 352.868317,457.634491 349.198456,470.003601 
	C347.122498,477.000580 345.679596,484.218170 344.420013,491.418335 
	C340.876343,511.675751 338.891541,532.025024 342.994263,552.455139 
	C346.453888,569.682678 353.928833,584.519531 368.910248,594.756836 
	C382.072357,603.750916 396.373779,606.409485 411.711517,602.155762 
	C419.999847,599.857117 427.653015,599.074585 435.785248,603.496765 
	C441.984589,606.867920 449.175507,607.463867 456.657257,603.807800 
M597.169800,463.156921 
	C591.884644,459.879089 586.308838,459.304199 580.391907,461.188934 
	C569.344482,464.707977 562.134766,472.573547 556.911499,482.390198 
	C552.930542,489.871948 549.660461,497.728271 545.891602,505.327423 
	C542.037781,513.097717 535.494385,516.784973 526.938721,516.906372 
	C519.485229,517.012085 516.263855,514.085449 516.935120,506.674011 
	C517.607422,499.249664 519.280823,491.913605 520.564392,484.547363 
	C524.552246,461.662445 510.235016,447.364624 487.933105,451.956848 
	C481.017395,453.380920 476.341919,457.691376 474.930481,464.291412 
	C473.558563,470.706512 473.035095,477.458313 473.248047,484.026306 
	C473.770935,500.153381 475.034119,516.254822 475.808228,532.375732 
	C476.595581,548.771606 474.436737,564.912659 471.456787,581.005798 
	C469.115295,593.651123 475.567841,603.110718 487.595886,605.545532 
	C500.090240,608.074646 510.370453,601.654541 513.011658,589.206299 
	C513.968506,584.696411 513.701233,579.939209 514.206970,575.318298 
	C514.900513,568.981018 518.045227,567.301636 523.689270,570.353821 
	C525.695007,571.438477 527.517700,573.036804 529.087830,574.715088 
	C532.271179,578.117859 535.256104,581.708984 538.268494,585.268494 
	C552.446594,602.021851 570.440552,607.445923 591.652161,603.228943 
	C599.450012,601.678650 604.479431,596.899353 606.298645,589.245361 
	C608.168274,581.379211 607.509033,573.669006 602.996948,566.649963 
	C595.571411,555.098694 584.239441,550.213745 571.273926,548.093079 
	C563.902832,546.887390 556.515564,545.731750 549.218445,544.166992 
	C547.886292,543.881348 546.060913,541.709290 546.091797,540.447754 
	C546.121887,539.219788 548.058167,537.688232 549.496155,536.944824 
	C550.896179,536.221069 552.716736,536.236023 554.367188,536.082642 
	C582.195801,533.495483 599.952209,518.080444 605.423462,490.803986 
	C607.429932,480.800446 607.212891,470.703308 597.169800,463.156921 
M248.827286,605.918823 
	C294.290955,609.012085 341.406586,566.589417 333.289490,515.198669 
	C326.733643,473.692413 288.854523,444.765472 247.479156,452.233276 
	C238.838364,453.792847 230.823212,457.044189 226.697128,465.342712 
	C224.072235,470.622009 221.514755,476.567566 221.296143,482.304657 
	C220.143448,512.556213 218.923477,542.848755 219.374741,573.102478 
	C219.670731,592.946167 229.928406,603.162903 248.827286,605.918823 
M975.543762,500.112457 
	C978.703369,495.688690 982.705200,491.638214 984.862732,486.770325 
	C991.004883,472.911835 985.711792,459.690826 971.424255,454.877502 
	C947.870361,446.942413 925.389038,450.365051 905.987671,465.997498 
	C887.857666,480.605591 884.111511,504.952087 897.124023,521.724304 
	C904.635071,531.405518 906.597290,540.047363 898.620789,549.917114 
	C898.210266,550.425110 897.971924,551.077576 897.680725,551.675964 
	C889.889893,567.685974 893.616211,584.778320 907.933655,595.341064 
	C924.896301,607.855286 943.630432,608.923767 962.966614,601.859253 
	C978.384338,596.226318 988.731567,585.476929 992.558411,569.293152 
	C996.625305,552.094116 984.429688,540.934631 967.667786,546.335754 
	C964.210388,547.449707 960.994812,549.308899 957.655701,550.797668 
	C954.756226,552.090454 951.079773,553.931946 949.224304,550.505127 
	C947.290588,546.933716 951.156738,545.038818 953.711060,543.297485 
	C956.177673,541.615906 959.043884,540.461853 961.329041,538.582886 
	C970.937866,530.681641 969.392761,517.334229 958.224060,512.001648 
	C955.260193,510.586548 951.813782,510.214294 948.752380,508.963257 
	C944.793457,507.345367 940.816406,505.610352 937.237549,503.316681 
	C936.077393,502.573151 935.273315,499.474762 935.889526,498.250153 
	C936.543945,496.949402 939.214111,495.767731 940.759888,496.021515 
	C943.051880,496.397736 945.376709,497.772003 947.255554,499.265076 
	C957.023987,507.027863 964.670410,507.468445 975.543762,500.112457 
M132.927353,461.378754 
	C117.782288,471.246185 109.701210,484.792480 110.877823,503.286560 
	C111.420494,511.816284 115.147026,518.831909 120.293236,525.413147 
	C126.669395,533.567200 126.736267,537.547424 121.533867,546.282532 
	C120.173042,548.567444 118.895172,550.921631 117.809402,553.347107 
	C111.022682,568.507507 115.119942,584.772522 128.229279,594.984253 
	C148.517776,610.788208 181.410446,609.549683 200.263718,591.939453 
	C209.111801,583.674866 214.506134,573.513977 213.963760,560.974792 
	C213.569061,551.850037 206.502594,544.553528 197.436310,545.155029 
	C191.820480,545.527588 186.328949,547.996338 180.820404,549.653137 
	C178.614990,550.316467 176.567429,551.751404 174.346634,552.031555 
	C172.823914,552.223694 171.126221,551.029297 169.506729,550.454712 
	C170.100082,548.834595 170.249146,546.718506 171.383545,545.702393 
	C173.451569,543.850159 176.097260,542.639282 178.513504,541.179932 
	C185.410324,537.014343 189.063370,531.136658 187.992371,522.884827 
	C187.052994,515.646912 181.694901,512.758606 175.611389,510.714935 
	C173.564362,510.027222 171.369705,509.736206 169.382690,508.921875 
	C165.718872,507.420227 161.894531,506.049500 158.679291,503.836456 
	C157.301910,502.888397 157.281906,499.968292 156.645172,497.944214 
	C158.722916,497.300018 161.057587,495.737183 162.817520,496.229401 
	C165.384552,496.947357 167.663681,498.986481 169.845291,500.736877 
	C176.902573,506.399200 184.641418,506.957794 192.243652,502.757843 
	C202.344452,497.177490 207.391815,488.010376 207.836716,476.538269 
	C208.220245,466.648468 203.692368,459.380463 194.505524,455.753723 
	C173.397095,447.420624 153.087112,450.164429 132.927353,461.378754 
M818.617554,605.531555 
	C827.939209,602.865234 832.938171,597.083130 832.629822,587.469971 
	C832.452576,581.944580 831.400818,576.051025 829.128906,571.057434 
	C819.276733,549.402588 819.197083,527.229370 824.275391,504.594910 
	C826.137024,496.297577 830.670593,491.921204 839.320923,490.964447 
	C845.913696,490.235229 852.596619,490.356262 859.231323,489.962555 
	C872.336731,489.184906 881.297729,481.430237 883.199768,469.347656 
	C884.657104,460.090057 880.287720,452.967987 871.029175,452.194275 
	C861.162537,451.369690 851.023560,451.251282 841.236694,452.563507 
	C821.937195,455.151245 802.851807,454.976044 783.551697,452.661316 
	C773.059082,451.402924 762.282471,451.524078 751.709229,452.200500 
	C740.832886,452.896362 733.811890,461.818817 734.075134,472.725494 
	C734.389343,485.744049 745.251282,496.275848 759.202515,497.041016 
	C765.014343,497.359741 770.865356,497.284088 776.638062,497.928711 
	C788.235962,499.223816 792.813232,505.442932 790.491089,516.830261 
	C788.664551,525.786865 786.401611,534.657654 784.203064,543.534424 
	C781.443604,554.675781 778.256958,565.709778 778.919067,577.413147 
	C779.536621,588.328247 784.424011,596.379578 794.068115,601.535950 
	C801.516785,605.518372 809.465027,606.665649 818.617554,605.531555 
M665.465271,536.662781 
	C668.389221,544.170471 672.593201,546.659790 679.052856,544.708374 
	C685.331543,542.811646 690.984497,533.138428 689.595825,526.667786 
	C687.641907,517.563721 678.329529,514.290771 671.223938,520.307922 
	C666.441162,524.358093 664.408813,529.591003 665.465271,536.662781 
z"/>
<path fill="#FCFEFF" opacity="1.000000" stroke="none" 
	d="
M802.031616,685.112366 
	C802.036560,683.133118 801.559692,681.391174 802.164795,680.197754 
	C802.972534,678.604675 804.404663,676.712708 805.956116,676.250732 
	C808.537964,675.481995 810.433228,676.984436 810.602661,679.942688 
	C810.678650,681.270386 810.676941,682.603577 810.677307,683.934265 
	C810.680603,697.413940 810.788635,710.895569 810.546265,724.370911 
	C810.512634,726.236694 809.084839,729.272644 807.697449,729.673706 
	C804.663269,730.550781 801.262878,730.767639 799.444885,726.500977 
	C795.925903,718.242432 791.949341,710.178284 788.132629,702.047546 
	C787.460693,700.616272 786.643433,699.253174 784.730530,698.062134 
	C784.730530,701.278748 784.734375,704.495422 784.729675,707.712036 
	C784.720947,713.702820 784.718323,719.693726 784.691284,725.684448 
	C784.677368,728.777405 783.194031,730.144409 780.006958,730.037720 
	C776.882507,729.933105 776.049744,728.259583 776.061462,725.527710 
	C776.097107,717.207153 776.068970,708.886230 776.067261,700.565491 
	C776.066040,694.408081 776.027039,688.250305 776.087769,682.093506 
	C776.111389,679.701721 775.387817,676.691711 778.997192,676.184082 
	C782.376282,675.708923 785.463867,675.753052 787.218811,679.833862 
	C790.765564,688.081726 794.710510,696.158813 798.523438,704.291199 
	C799.188843,705.710510 800.011841,707.055969 800.762024,708.435486 
	C801.185242,708.356628 801.608398,708.277832 802.031616,708.198975 
	C802.031616,700.663940 802.031616,693.128906 802.031616,685.112366 
z"/>
<path fill="#FCFEFF" opacity="1.000000" stroke="none" 
	d="
M348.729736,709.037476 
	C348.729004,714.355469 348.739197,719.181213 348.724670,724.006836 
	C348.715271,727.126892 348.751801,730.121155 344.188873,730.045471 
	C339.867798,729.973877 340.060822,727.142395 340.062927,724.211792 
	C340.073090,710.067566 339.965973,695.921753 340.189117,681.781006 
	C340.218872,679.894714 341.513855,676.840027 342.884094,676.403870 
	C345.991882,675.414795 349.346100,675.547485 351.133972,679.667175 
	C354.708313,687.903442 358.627441,695.990417 362.434326,704.124939 
	C363.121460,705.593201 363.952881,706.993835 365.366241,709.640015 
	C365.706848,707.130615 366.001282,705.943481 366.007812,704.754700 
	C366.051666,696.767639 366.077637,688.779785 366.014404,680.793030 
	C365.990875,677.820496 366.886169,676.021729 370.250397,676.049194 
	C373.527679,676.075989 374.656921,677.845398 374.657623,680.781799 
	C374.661163,695.591492 374.758698,710.402771 374.519836,725.208618 
	C374.494080,726.806824 372.765320,729.394958 371.379242,729.743103 
	C368.448883,730.479065 365.248383,730.664734 363.520569,726.644897 
	C359.975586,718.397278 356.014404,710.328247 352.201569,702.196411 
	C351.519196,700.741089 350.726471,699.337524 348.730133,698.026306 
	C348.730133,701.532593 348.730133,705.038879 348.729736,709.037476 
z"/>
<path fill="#FEFEFF" opacity="1.000000" stroke="none" 
	d="
M310.069031,705.000000 
	C310.068878,711.658875 310.131744,717.818787 310.035980,723.976196 
	C309.999786,726.303772 310.942078,729.383728 307.222107,729.894958 
	C303.822845,730.362122 300.804138,730.271057 299.081940,726.166687 
	C295.865570,718.501282 292.169006,711.036926 288.649048,703.499756 
	C287.706085,701.480591 286.679352,699.500549 285.691040,697.502563 
	C285.272614,697.601746 284.854187,697.700928 284.435730,697.800110 
	C284.325439,699.529419 284.128632,701.258301 284.119720,702.988098 
	C284.080231,710.644897 284.049835,718.302368 284.111908,725.958801 
	C284.136566,729.003418 282.540985,730.594421 279.837372,729.815552 
	C278.308594,729.375061 276.173065,727.312317 276.149261,725.948181 
	C275.885132,710.805237 275.899750,695.654907 276.108643,680.510254 
	C276.128937,679.039612 277.718781,676.639709 278.984344,676.331543 
	C281.774689,675.652039 284.882294,675.399048 286.532593,679.150269 
	C289.948639,686.914978 293.632111,694.562317 297.233154,702.244995 
	C298.249634,704.413635 299.361389,706.537598 300.429443,708.682007 
	C300.931519,708.588074 301.433594,708.494141 301.935669,708.400146 
	C301.935669,705.180420 301.935608,701.960632 301.935699,698.740906 
	C301.935852,693.247803 301.930328,687.754761 301.938568,682.261658 
	C301.943054,679.262146 301.402618,675.987183 306.140747,676.060669 
	C310.561432,676.129272 310.058197,679.205627 310.063446,682.028259 
	C310.077362,689.518860 310.068665,697.009399 310.069031,705.000000 
z"/>
<path fill="#FBFDFE" opacity="1.000000" stroke="none" 
	d="
M407.520691,719.349426 
	C403.126678,709.238586 402.849915,699.291687 406.535583,689.351379 
	C409.750671,680.680054 416.643188,675.944031 425.132660,676.101929 
	C433.381500,676.255310 440.148621,681.564087 443.052216,690.307068 
	C445.754303,698.443237 445.832794,706.678223 443.367523,714.865723 
	C440.989349,722.763916 436.253754,728.513794 427.671082,729.766846 
	C418.799072,731.062012 412.089417,727.538940 407.520691,719.349426 
M412.893707,707.161621 
	C413.148468,708.625610 413.275787,710.125793 413.679901,711.547302 
	C415.517944,718.012878 419.912506,721.922607 424.946594,721.681641 
	C430.103516,721.434814 434.920532,717.326904 435.614044,710.885864 
	C436.237335,705.096985 435.994232,699.007874 434.878998,693.296082 
	C433.731018,687.416504 429.767029,684.838074 424.744385,684.787964 
	C419.716431,684.737793 415.562256,687.689880 414.112701,693.472473 
	C413.083160,697.579529 413.218903,701.978760 412.893707,707.161621 
z"/>
<path fill="#FCFEFE" opacity="1.000000" stroke="none" 
	d="
M729.384766,676.344971 
	C740.223511,679.469177 745.785828,686.685547 746.395203,700.239502 
	C746.663025,706.196655 745.529175,712.577454 743.467590,718.191528 
	C740.598755,726.004089 734.204529,730.150513 725.568359,729.970337 
	C716.845886,729.788330 711.202759,724.913208 708.173767,717.254944 
	C704.565918,708.133118 704.673035,698.653015 708.016174,689.451294 
	C711.531372,679.775818 718.347900,675.710876 729.384766,676.344971 
M732.986938,687.360474 
	C726.706970,682.703186 719.632446,684.136780 716.477966,691.157715 
	C712.984863,698.932251 712.915894,706.988159 716.389526,714.862122 
	C718.197083,718.959656 721.374939,721.573608 726.035034,721.586853 
	C730.696777,721.600159 734.029419,719.046448 735.681335,714.899963 
	C739.376587,705.624756 739.646057,696.469910 732.986938,687.360474 
z"/>
<path fill="#FCFEFF" opacity="1.000000" stroke="none" 
	d="
M572.798950,711.135864 
	C574.135315,716.022766 575.592590,720.473145 576.457214,725.035950 
	C576.735291,726.503174 575.450439,728.266602 574.880615,729.894531 
	C572.759827,729.115295 570.137939,728.853943 568.653381,727.417236 
	C567.036316,725.852173 566.857239,721.688416 565.377319,721.312805 
	C561.624023,720.360107 557.445251,720.526062 553.542114,721.041504 
	C552.275269,721.208740 551.292908,723.819153 550.256958,725.363403 
	C549.287170,726.808960 548.739014,728.986511 547.417603,729.624023 
	C546.022949,730.296936 543.630371,730.028992 542.263428,729.199890 
	C541.471863,728.719788 541.396301,726.207581 541.759216,724.806946 
	C545.598328,709.990784 549.635742,695.226135 553.503479,680.417175 
	C554.290466,677.403748 555.687561,675.968262 559.015503,675.969971 
	C562.315186,675.971619 563.783569,677.329224 564.567688,680.367676 
	C567.186584,690.515625 569.969849,700.621155 572.798950,711.135864 
M555.346130,705.772705 
	C555.195496,708.217041 552.518616,711.554932 557.750061,712.025146 
	C563.274475,712.521729 564.305725,711.350586 562.794861,705.919189 
	C562.527588,704.958313 562.397461,703.924438 561.948303,703.056580 
	C561.156921,701.527466 560.168396,700.100342 559.262390,698.630554 
	C558.197083,700.119141 557.079285,701.574280 556.095276,703.114746 
	C555.756287,703.645447 555.750610,704.389038 555.346130,705.772705 
z"/>
<path fill="#FCFEFE" opacity="1.000000" stroke="none" 
	d="
M486.072693,687.801758 
	C488.187531,695.647888 490.218445,703.096252 492.249390,710.544617 
	C492.714264,710.556702 493.179169,710.568787 493.644073,710.580872 
	C495.733002,703.015564 497.829590,695.452332 499.906799,687.883850 
	C500.654602,685.159180 501.448853,682.442322 502.055939,679.685364 
	C502.892822,675.884949 505.630188,675.562256 508.578674,676.255005 
	C512.036926,677.067444 510.871307,679.678040 510.275574,681.902344 
	C506.405914,696.351135 502.487213,710.786926 498.669006,725.249207 
	C497.865326,728.293274 496.693176,730.130615 492.989655,730.131409 
	C489.277008,730.132202 488.126984,728.273010 487.323639,725.236328 
	C483.455536,710.614990 479.405060,696.040955 475.696045,681.380066 
	C475.319489,679.891602 476.365326,676.873779 477.500763,676.413025 
	C479.949890,675.419067 482.861359,675.653687 483.788727,679.217957 
	C484.500153,681.952332 485.253845,684.675720 486.072693,687.801758 
z"/>
<path fill="#FCFEFE" opacity="1.000000" stroke="none" 
	d="
M866.558960,718.624023 
	C864.436890,727.494324 860.502075,730.468384 852.004944,729.971008 
	C845.308228,729.579041 841.212891,725.567017 840.363098,718.565552 
	C840.061646,716.081421 840.066895,713.706482 843.374451,713.407288 
	C846.197815,713.151855 848.867310,713.280884 848.914734,717.219055 
	C848.952942,720.398315 850.412231,722.355225 853.812927,722.032776 
	C857.636841,721.670105 857.904236,718.542603 857.129028,716.074524 
	C856.230042,713.212097 854.483704,710.458435 852.549988,708.115784 
	C849.713440,704.679382 846.037598,701.913574 843.349792,698.382141 
	C839.728760,693.624634 839.802063,685.256226 842.870361,680.915466 
	C845.699951,676.912109 851.506531,675.114990 857.255188,676.463318 
	C862.545532,677.704102 865.957703,681.477417 866.178284,687.015930 
	C866.229614,688.303894 864.648499,690.790466 863.907715,690.756897 
	C861.944214,690.667786 858.704041,689.895447 858.346313,688.690125 
	C857.305908,685.184998 855.560364,682.678894 852.242920,684.473694 
	C850.668457,685.325439 849.438599,689.839111 850.305603,691.556213 
	C852.177612,695.263611 855.170776,698.608765 858.312378,701.424927 
	C863.425842,706.008850 866.691711,711.220398 866.558960,718.624023 
z"/>
<path fill="#F8FCFE" opacity="1.000000" stroke="none" 
	d="
M618.052307,716.974121 
	C618.051941,707.834167 617.876587,699.183899 618.125488,690.545959 
	C618.247986,686.293457 616.957764,684.310059 612.486267,684.703003 
	C609.341980,684.979370 606.426758,684.099609 607.227661,680.156921 
	C607.542725,678.605713 609.581421,676.310608 610.928711,676.243835 
	C618.557495,675.865723 626.224426,675.865295 633.853333,676.242432 
	C635.212280,676.309631 637.179993,678.566711 637.585449,680.142273 
	C638.255127,682.744507 636.641724,684.375977 633.741943,684.741516 
	C626.765869,685.620972 626.772644,685.695496 626.770874,692.514954 
	C626.768066,703.155151 626.747437,713.795410 626.782532,724.435486 
	C626.792725,727.509460 626.583984,730.066467 622.407349,730.070190 
	C618.232849,730.073914 617.959717,727.544861 618.041565,724.451233 
	C618.103088,722.125366 618.052734,719.796448 618.052307,716.974121 
z"/>
<path fill="#F6FBFD" opacity="1.000000" stroke="none" 
	d="
M675.911377,685.111633 
	C675.910950,698.551941 675.886719,711.509460 675.927490,724.466797 
	C675.937256,727.565186 675.689819,730.071411 671.537659,730.078247 
	C667.364624,730.085144 667.145752,727.538818 667.152405,724.462891 
	C667.182556,710.508789 667.152710,696.554504 667.173645,682.600342 
	C667.178345,679.479553 666.540222,675.995605 671.559753,676.009277 
	C676.594116,676.022949 675.837769,679.532166 675.908997,682.635437 
	C675.924255,683.299561 675.911377,683.964294 675.911377,685.111633 
z"/>
<path fill="#FEFEFF" opacity="1.000000" stroke="none" 
	d="
M237.970566,702.000000 
	C237.973679,694.524780 238.018372,687.549133 237.959213,680.574463 
	C237.935989,677.836792 238.724777,676.130432 241.848190,676.059204 
	C245.172409,675.983398 246.137848,677.645630 246.124741,680.684204 
	C246.060226,695.630920 246.073410,710.578003 246.113617,725.524841 
	C246.120941,728.244446 245.408112,729.959167 242.243027,730.022400 
	C238.906387,730.088989 237.917770,728.458130 237.950272,725.418335 
	C238.031967,717.779724 237.973099,710.139526 237.970566,702.000000 
z"/>
<path fill="#DF7ADF" opacity="1.000000" stroke="none" 
	d="
M597.481689,463.356445 
	C607.212891,470.703308 607.429932,480.800446 605.423462,490.803986 
	C599.952209,518.080444 582.195801,533.495483 554.367188,536.082642 
	C552.716736,536.236023 550.896179,536.221069 549.496155,536.944824 
	C548.058167,537.688232 546.121887,539.219788 546.091797,540.447754 
	C546.060913,541.709290 547.886292,543.881348 549.218445,544.166992 
	C556.515564,545.731750 563.902832,546.887390 571.273926,548.093079 
	C584.239441,550.213745 595.571411,555.098694 602.996948,566.649963 
	C607.509033,573.669006 608.168274,581.379211 606.298645,589.245361 
	C604.479431,596.899353 599.450012,601.678650 591.652161,603.228943 
	C570.440552,607.445923 552.446594,602.021851 538.268494,585.268494 
	C535.256104,581.708984 532.271179,578.117859 529.087830,574.715088 
	C527.517700,573.036804 525.695007,571.438477 523.689270,570.353821 
	C518.045227,567.301636 514.900513,568.981018 514.206970,575.318298 
	C513.701233,579.939209 513.968506,584.696411 513.011658,589.206299 
	C510.370453,601.654541 500.090240,608.074646 487.595886,605.545532 
	C475.567841,603.110718 469.115295,593.651123 471.456787,581.005798 
	C474.436737,564.912659 476.595581,548.771606 475.808228,532.375732 
	C475.034119,516.254822 473.770935,500.153381 473.248047,484.026306 
	C473.035095,477.458313 473.558563,470.706512 474.930481,464.291412 
	C476.341919,457.691376 481.017395,453.380920 487.933105,451.956848 
	C510.235016,447.364624 524.552246,461.662445 520.564392,484.547363 
	C519.280823,491.913605 517.607422,499.249664 516.935120,506.674011 
	C516.263855,514.085449 519.485229,517.012085 526.938721,516.906372 
	C535.494385,516.784973 542.037781,513.097717 545.891602,505.327423 
	C549.660461,497.728271 552.930542,489.871948 556.911499,482.390198 
	C562.134766,472.573547 569.344482,464.707977 580.391907,461.188934 
	C586.308838,459.304199 591.884644,459.879089 597.481689,463.356445 
z"/>
<path fill="#DF7ADF" opacity="1.000000" stroke="none" 
	d="
M248.372955,605.897583 
	C229.928406,603.162903 219.670731,592.946167 219.374741,573.102478 
	C218.923477,542.848755 220.143448,512.556213 221.296143,482.304657 
	C221.514755,476.567566 224.072235,470.622009 226.697128,465.342712 
	C230.823212,457.044189 238.838364,453.792847 247.479156,452.233276 
	C288.854523,444.765472 326.733643,473.692413 333.289490,515.198669 
	C341.406586,566.589417 294.290955,609.012085 248.372955,605.897583 
M283.974426,508.514465 
	C281.468658,506.983612 279.139587,504.875427 276.420044,504.043213 
	C270.922241,502.360870 266.811951,504.806335 265.454163,510.358765 
	C263.283295,519.236328 263.666046,528.176331 266.226196,536.904602 
	C267.902954,542.621094 273.232635,546.894226 278.118652,546.766907 
	C284.030762,546.612793 287.393921,542.810547 289.532776,537.787537 
	C294.064972,527.143921 291.348969,517.708984 283.974426,508.514465 
z"/>
<path fill="#DF7ADF" opacity="1.000000" stroke="none" 
	d="
M455.978394,603.895508 
	C449.175507,607.463867 441.984589,606.867920 435.785248,603.496765 
	C427.653015,599.074585 419.999847,599.857117 411.711517,602.155762 
	C396.373779,606.409485 382.072357,603.750916 368.910248,594.756836 
	C353.928833,584.519531 346.453888,569.682678 342.994263,552.455139 
	C338.891541,532.025024 340.876343,511.675751 344.420013,491.418335 
	C345.679596,484.218170 347.122498,477.000580 349.198456,470.003601 
	C352.868317,457.634491 359.731171,451.626434 369.683624,451.129364 
	C380.232086,450.602509 391.811890,458.134644 396.297302,468.268738 
	C399.651276,475.846436 399.199615,483.540314 397.125671,491.233368 
	C395.307037,497.979279 392.695374,504.535400 391.227722,511.346344 
	C388.938202,521.971619 387.793365,532.717590 391.828033,543.310852 
	C395.994019,554.249023 404.975677,556.197632 413.082642,547.657837 
	C421.551788,538.736511 421.654388,527.859802 419.394226,516.735657 
	C418.137268,510.549072 415.541168,504.580444 414.773163,498.362305 
	C413.807373,490.542297 413.375092,482.503967 414.067719,474.679810 
	C414.621765,468.421326 418.571045,463.319855 424.889709,460.193298 
	C426.622406,460.322266 427.763489,460.420624 428.858826,460.240631 
	C439.058868,458.564362 447.412506,462.094543 453.312561,470.205322 
	C458.365173,477.151215 460.506622,485.372009 461.059326,494.048065 
	C462.160553,511.334930 458.254944,528.046143 455.462677,544.866882 
	C453.524384,556.543091 453.446960,568.047485 457.335938,579.243164 
	C460.307404,587.797546 461.574524,595.955139 455.978394,603.895508 
z"/>
<path fill="#DF79DF" opacity="1.000000" stroke="none" 
	d="
M728.082703,600.173706 
	C716.169128,605.645264 704.847778,603.304565 694.538208,596.490417 
	C684.779602,590.040527 683.018494,579.697205 684.469788,568.976257 
	C685.625854,560.436218 688.587097,552.119629 689.485901,543.571289 
	C690.449829,534.404358 690.507446,525.042358 689.858276,515.843262 
	C689.473999,510.396301 686.929932,504.428192 680.516479,503.702393 
	C674.035400,502.968964 671.157837,508.506042 668.763367,513.551514 
	C662.305847,527.158813 660.723206,541.390686 662.431213,556.354126 
	C663.477356,565.519165 664.099426,575.055420 662.739197,584.098145 
	C660.605042,598.286560 648.086975,606.901733 633.750671,605.909607 
	C619.374695,604.914734 610.974915,592.763123 613.317688,576.828674 
	C615.064514,564.947327 619.224243,553.911255 625.080811,543.612732 
	C636.897278,522.834290 645.897949,500.876038 653.822754,478.402618 
	C656.822998,469.894653 660.381165,461.621216 668.820679,455.975464 
	C676.682129,453.975403 683.767700,453.026093 691.113586,455.126404 
	C703.413391,458.643158 712.205688,466.647522 719.403259,476.693817 
	C730.980591,492.853455 737.082520,511.166565 739.853882,530.661011 
	C742.482544,549.151428 741.279724,567.435791 735.365723,585.194885 
	C733.626648,590.417114 730.547607,595.193176 728.082703,600.173706 
z"/>
<path fill="#DF7ADF" opacity="1.000000" stroke="none" 
	d="
M975.271118,500.347809 
	C964.670410,507.468445 957.023987,507.027863 947.255554,499.265076 
	C945.376709,497.772003 943.051880,496.397736 940.759888,496.021515 
	C939.214111,495.767731 936.543945,496.949402 935.889526,498.250153 
	C935.273315,499.474762 936.077393,502.573151 937.237549,503.316681 
	C940.816406,505.610352 944.793457,507.345367 948.752380,508.963257 
	C951.813782,510.214294 955.260193,510.586548 958.224060,512.001648 
	C969.392761,517.334229 970.937866,530.681641 961.329041,538.582886 
	C959.043884,540.461853 956.177673,541.615906 953.711060,543.297485 
	C951.156738,545.038818 947.290588,546.933716 949.224304,550.505127 
	C951.079773,553.931946 954.756226,552.090454 957.655701,550.797668 
	C960.994812,549.308899 964.210388,547.449707 967.667786,546.335754 
	C984.429688,540.934631 996.625305,552.094116 992.558411,569.293152 
	C988.731567,585.476929 978.384338,596.226318 962.966614,601.859253 
	C943.630432,608.923767 924.896301,607.855286 907.933655,595.341064 
	C893.616211,584.778320 889.889893,567.685974 897.680725,551.675964 
	C897.971924,551.077576 898.210266,550.425110 898.620789,549.917114 
	C906.597290,540.047363 904.635071,531.405518 897.124023,521.724304 
	C884.111511,504.952087 887.857666,480.605591 905.987671,465.997498 
	C925.389038,450.365051 947.870361,446.942413 971.424255,454.877502 
	C985.711792,459.690826 991.004883,472.911835 984.862732,486.770325 
	C982.705200,491.638214 978.703369,495.688690 975.271118,500.347809 
z"/>
<path fill="#DF7ADF" opacity="1.000000" stroke="none" 
	d="
M133.239349,461.192505 
	C153.087112,450.164429 173.397095,447.420624 194.505524,455.753723 
	C203.692368,459.380463 208.220245,466.648468 207.836716,476.538269 
	C207.391815,488.010376 202.344452,497.177490 192.243652,502.757843 
	C184.641418,506.957794 176.902573,506.399200 169.845291,500.736877 
	C167.663681,498.986481 165.384552,496.947357 162.817520,496.229401 
	C161.057587,495.737183 158.722916,497.300018 156.645172,497.944214 
	C157.281906,499.968292 157.301910,502.888397 158.679291,503.836456 
	C161.894531,506.049500 165.718872,507.420227 169.382690,508.921875 
	C171.369705,509.736206 173.564362,510.027222 175.611389,510.714935 
	C181.694901,512.758606 187.052994,515.646912 187.992371,522.884827 
	C189.063370,531.136658 185.410324,537.014343 178.513504,541.179932 
	C176.097260,542.639282 173.451569,543.850159 171.383545,545.702393 
	C170.249146,546.718506 170.100082,548.834595 169.506729,550.454712 
	C171.126221,551.029297 172.823914,552.223694 174.346634,552.031555 
	C176.567429,551.751404 178.614990,550.316467 180.820404,549.653137 
	C186.328949,547.996338 191.820480,545.527588 197.436310,545.155029 
	C206.502594,544.553528 213.569061,551.850037 213.963760,560.974792 
	C214.506134,573.513977 209.111801,583.674866 200.263718,591.939453 
	C181.410446,609.549683 148.517776,610.788208 128.229279,594.984253 
	C115.119942,584.772522 111.022682,568.507507 117.809402,553.347107 
	C118.895172,550.921631 120.173042,548.567444 121.533867,546.282532 
	C126.736267,537.547424 126.669395,533.567200 120.293236,525.413147 
	C115.147026,518.831909 111.420494,511.816284 110.877823,503.286560 
	C109.701210,484.792480 117.782288,471.246185 133.239349,461.192505 
z"/>
<path fill="#DF7BDF" opacity="1.000000" stroke="none" 
	d="
M818.200195,605.625122 
	C809.465027,606.665649 801.516785,605.518372 794.068115,601.535950 
	C784.424011,596.379578 779.536621,588.328247 778.919067,577.413147 
	C778.256958,565.709778 781.443604,554.675781 784.203064,543.534424 
	C786.401611,534.657654 788.664551,525.786865 790.491089,516.830261 
	C792.813232,505.442932 788.235962,499.223816 776.638062,497.928711 
	C770.865356,497.284088 765.014343,497.359741 759.202515,497.041016 
	C745.251282,496.275848 734.389343,485.744049 734.075134,472.725494 
	C733.811890,461.818817 740.832886,452.896362 751.709229,452.200500 
	C762.282471,451.524078 773.059082,451.402924 783.551697,452.661316 
	C802.851807,454.976044 821.937195,455.151245 841.236694,452.563507 
	C851.023560,451.251282 861.162537,451.369690 871.029175,452.194275 
	C880.287720,452.967987 884.657104,460.090057 883.199768,469.347656 
	C881.297729,481.430237 872.336731,489.184906 859.231323,489.962555 
	C852.596619,490.356262 845.913696,490.235229 839.320923,490.964447 
	C830.670593,491.921204 826.137024,496.297577 824.275391,504.594910 
	C819.197083,527.229370 819.276733,549.402588 829.128906,571.057434 
	C831.400818,576.051025 832.452576,581.944580 832.629822,587.469971 
	C832.938171,597.083130 827.939209,602.865234 818.200195,605.625122 
z"/>
<path fill="#E08FE1" opacity="1.000000" stroke="none" 
	d="
M728.416748,600.086304 
	C730.547607,595.193176 733.626648,590.417114 735.365723,585.194885 
	C741.279724,567.435791 742.482544,549.151428 739.853882,530.661011 
	C737.082520,511.166565 730.980591,492.853455 719.403259,476.693817 
	C712.205688,466.647522 703.413391,458.643158 691.113586,455.126404 
	C683.767700,453.026093 676.682129,453.975403 669.134338,455.869507 
	C674.793274,450.498108 682.048950,450.326752 689.412415,451.523712 
	C702.458496,453.644501 712.210693,461.207428 720.090027,471.317902 
	C732.423035,487.143158 739.528320,505.312195 742.585938,524.991943 
	C745.811890,545.754883 745.262634,566.384094 738.265198,586.475342 
	C736.393616,591.848999 734.120178,597.039368 728.416748,600.086304 
z"/>
<path fill="#E091E1" opacity="1.000000" stroke="none" 
	d="
M456.317810,603.851685 
	C461.574524,595.955139 460.307404,587.797546 457.335938,579.243164 
	C453.446960,568.047485 453.524384,556.543091 455.462677,544.866882 
	C458.254944,528.046143 462.160553,511.334930 461.059326,494.048065 
	C460.506622,485.372009 458.365173,477.151215 453.312561,470.205322 
	C447.412506,462.094543 439.058868,458.564362 428.858826,460.240631 
	C427.763489,460.420624 426.622406,460.322266 425.222046,460.102173 
	C436.362549,453.104309 451.073090,457.998962 458.375397,471.057220 
	C465.188812,483.241089 466.037476,496.435913 464.313232,509.881866 
	C462.389008,524.887146 459.950775,539.825745 457.918732,554.818115 
	C456.343964,566.436768 461.151764,577.076355 463.396973,588.110535 
	C464.842133,595.212891 462.742828,599.853271 456.317810,603.851685 
z"/>
<path fill="#DF7FE0" opacity="1.000000" stroke="none" 
	d="
M665.363831,536.264099 
	C664.408813,529.591003 666.441162,524.358093 671.223938,520.307922 
	C678.329529,514.290771 687.641907,517.563721 689.595825,526.667786 
	C690.984497,533.138428 685.331543,542.811646 679.052856,544.708374 
	C672.593201,546.659790 668.389221,544.170471 665.363831,536.264099 
z"/>
<path fill="#8ACEE9" opacity="1.000000" stroke="none" 
	d="
M412.864136,706.704590 
	C413.218903,701.978760 413.083160,697.579529 414.112701,693.472473 
	C415.562256,687.689880 419.716431,684.737793 424.744385,684.787964 
	C429.767029,684.838074 433.731018,687.416504 434.878998,693.296082 
	C435.994232,699.007874 436.237335,705.096985 435.614044,710.885864 
	C434.920532,717.326904 430.103516,721.434814 424.946594,721.681641 
	C419.912506,721.922607 415.517944,718.012878 413.679901,711.547302 
	C413.275787,710.125793 413.148468,708.625610 412.864136,706.704590 
z"/>
<path fill="#8ACEE9" opacity="1.000000" stroke="none" 
	d="
M733.262085,687.630493 
	C739.646057,696.469910 739.376587,705.624756 735.681335,714.899963 
	C734.029419,719.046448 730.696777,721.600159 726.035034,721.586853 
	C721.374939,721.573608 718.197083,718.959656 716.389526,714.862122 
	C712.915894,706.988159 712.984863,698.932251 716.477966,691.157715 
	C719.632446,684.136780 726.706970,682.703186 733.262085,687.630493 
z"/>
<path fill="#8ACEE9" opacity="1.000000" stroke="none" 
	d="
M555.469421,705.404053 
	C555.750610,704.389038 555.756287,703.645447 556.095276,703.114746 
	C557.079285,701.574280 558.197083,700.119141 559.262390,698.630554 
	C560.168396,700.100342 561.156921,701.527466 561.948303,703.056580 
	C562.397461,703.924438 562.527588,704.958313 562.794861,705.919189 
	C564.305725,711.350586 563.274475,712.521729 557.750061,712.025146 
	C552.518616,711.554932 555.195496,708.217041 555.469421,705.404053 
z"/>
<path fill="#FEFCFE" opacity="1.000000" stroke="none" 
	d="
M284.226318,508.775299 
	C291.348969,517.708984 294.064972,527.143921 289.532776,537.787537 
	C287.393921,542.810547 284.030762,546.612793 278.118652,546.766907 
	C273.232635,546.894226 267.902954,542.621094 266.226196,536.904602 
	C263.666046,528.176331 263.283295,519.236328 265.454163,510.358765 
	C266.811951,504.806335 270.922241,502.360870 276.420044,504.043213 
	C279.139587,504.875427 281.468658,506.983612 284.226318,508.775299 
z"/>
</svg>