<svg viewBox="0 0 80 15" xmlns="http://www.w3.org/2000/svg">
  <defs></defs>
  <path d="M 20.402 1.053 C 19.366 1.321 18.674 1.983 18.512 2.856 C 18.415 3.387 18.532 3.83 18.909 4.357 C 19.218 4.788 19.22 4.898 18.932 5.455 C 18.696 5.914 18.69 5.936 18.692 6.354 C 18.695 6.871 18.818 7.154 19.193 7.506 C 19.629 7.913 20.137 8.094 20.85 8.096 C 21.862 8.099 22.688 7.637 23.074 6.854 C 23.279 6.438 23.322 6.089 23.207 5.787 C 23.016 5.286 22.456 5.151 21.841 5.459 C 21.526 5.616 21.278 5.659 21.22 5.566 C 21.155 5.46 21.26 5.319 21.508 5.178 C 21.825 4.998 21.959 4.854 22.038 4.608 C 22.186 4.147 21.957 3.848 21.304 3.65 C 21.067 3.578 20.812 3.476 20.736 3.423 C 20.56 3.298 20.553 3.104 20.723 3.027 C 20.829 2.979 20.874 2.991 21.05 3.115 C 21.413 3.369 21.562 3.432 21.805 3.432 C 22.113 3.432 22.328 3.34 22.551 3.11 C 23.03 2.616 23.117 1.882 22.748 1.444 C 22.372 0.996 21.305 0.819 20.402 1.053 M 24.658 1.041 C 24.029 1.211 23.746 1.585 23.598 2.44 C 23.532 2.817 23.514 3.293 23.51 4.822 C 23.503 6.664 23.507 6.745 23.613 7.081 C 23.739 7.483 23.981 7.797 24.29 7.962 C 24.472 8.06 24.57 8.072 25.141 8.072 C 25.683 8.072 25.841 8.054 26.129 7.957 C 27.833 7.387 28.937 5.878 28.821 4.278 C 28.711 2.752 27.786 1.522 26.431 1.099 C 25.938 0.946 25.11 0.918 24.658 1.041 M 30.087 1.058 C 29.693 1.253 29.484 1.748 29.275 2.986 C 29.124 3.875 29.125 5.225 29.277 5.789 C 29.606 7.014 30.336 7.764 31.417 7.988 C 31.774 8.062 31.825 8.061 32.241 7.974 C 32.943 7.827 33.158 7.823 33.41 7.952 C 33.554 8.026 33.744 8.07 33.974 8.083 C 34.408 8.108 34.626 8.011 34.763 7.731 C 34.868 7.517 34.857 7.414 34.643 6.608 C 34.548 6.248 34.536 6.114 34.563 5.69 C 34.581 5.417 34.627 5.027 34.666 4.822 C 34.706 4.617 34.777 4.164 34.825 3.815 C 34.9 3.267 34.903 3.121 34.85 2.748 C 34.724 1.872 34.319 1.343 33.686 1.228 C 33.233 1.146 32.715 1.464 32.554 1.925 C 32.435 2.264 32.473 2.845 32.657 3.482 C 32.923 4.403 32.879 5.006 32.52 5.385 C 32.012 5.92 31.547 5.664 31.397 4.766 C 31.348 4.474 31.455 3.741 31.621 3.234 C 31.713 2.952 31.786 2.608 31.802 2.379 C 31.826 2.033 31.815 1.968 31.695 1.723 C 31.383 1.086 30.646 0.781 30.087 1.058 M 35.86 1.011 C 35.647 1.085 35.489 1.242 35.38 1.484 C 35.27 1.727 35.256 2.273 35.337 3.135 C 35.414 3.963 35.4 5.663 35.311 6.236 C 35.142 7.327 35.152 7.498 35.403 7.783 C 35.603 8.011 35.809 8.097 36.158 8.097 C 36.502 8.097 36.718 8.009 36.897 7.796 C 37.079 7.581 37.117 7.472 37.151 7.068 C 37.208 6.406 37.206 6.41 37.411 6.41 C 37.578 6.41 37.64 6.459 38.19 7.025 C 38.519 7.363 38.889 7.697 39.011 7.767 C 39.663 8.137 40.752 8.139 41.189 7.772 C 41.498 7.512 41.575 6.864 41.35 6.423 C 41.043 5.821 40.533 5.539 39.491 5.395 C 38.87 5.309 38.687 5.252 38.64 5.129 C 38.588 4.994 38.733 4.921 39.206 4.845 C 40.186 4.686 40.812 4.247 41.17 3.465 C 41.537 2.663 41.531 2.037 41.153 1.641 C 40.901 1.375 40.62 1.305 40.252 1.415 C 39.677 1.587 39.263 2.063 38.834 3.044 C 38.513 3.778 38.283 3.978 37.762 3.978 C 37.569 3.978 37.492 3.953 37.396 3.856 C 37.246 3.707 37.243 3.559 37.375 2.964 C 37.613 1.885 37.42 1.252 36.783 1.028 C 36.539 0.941 36.083 0.933 35.86 1.011 M 44.594 1.011 C 44.372 1.089 44.143 1.276 43.983 1.511 C 43.841 1.719 43.785 1.852 43.252 3.234 C 43.1 3.63 42.767 4.355 42.513 4.847 C 42.017 5.804 41.879 6.153 41.788 6.676 C 41.637 7.542 42.048 8.099 42.836 8.096 C 43.232 8.095 43.489 7.984 43.737 7.709 C 44.056 7.355 44.095 7.217 44.075 6.484 C 44.029 4.788 44.04 4.586 44.213 4.129 C 44.403 3.627 44.61 3.383 44.848 3.383 C 45.048 3.383 45.222 3.576 45.312 3.898 C 45.407 4.237 45.354 5.081 45.196 5.732 C 45.057 6.305 45.03 6.8 45.121 7.129 C 45.199 7.415 45.581 7.772 45.915 7.871 C 46.248 7.97 46.86 7.972 47.047 7.875 C 47.832 7.47 48.08 5.096 47.512 3.432 C 47.184 2.47 46.666 1.7 46.07 1.29 C 45.641 0.994 44.993 0.871 44.594 1.011 M 48.118 0.998 C 47.851 1.062 47.648 1.198 47.513 1.403 C 47.403 1.568 47.379 1.661 47.379 1.919 C 47.379 2.182 47.404 2.274 47.526 2.472 C 47.8 2.915 48.193 3.085 48.946 3.085 C 49.422 3.085 49.706 3.165 49.855 3.343 C 50.048 3.572 50.023 3.898 49.723 5.054 C 49.496 5.932 49.468 6.096 49.463 6.584 C 49.457 7.196 49.522 7.385 49.838 7.682 C 50.136 7.963 50.401 8.064 50.897 8.085 C 51.439 8.108 51.628 8.027 51.801 7.7 C 51.972 7.377 51.954 7.01 51.743 6.445 C 51.376 5.467 51.313 4.963 51.439 4.028 C 51.589 2.913 51.714 2.796 52.805 2.741 C 53.668 2.697 53.929 2.575 54.167 2.106 C 54.389 1.665 54.285 1.257 53.901 1.063 C 53.631 0.926 53.1 0.915 52.187 1.025 C 51.424 1.117 50.69 1.117 49.755 1.026 C 48.964 0.948 48.362 0.938 48.118 0.998 M 56.582 1.028 C 55.8 1.198 55.085 1.714 54.783 2.328 C 54.66 2.577 54.622 2.728 54.604 3.034 C 54.573 3.569 54.653 3.856 54.951 4.281 C 55.306 4.786 55.311 4.9 55.01 5.495 C 54.781 5.947 54.768 5.993 54.772 6.353 C 54.775 6.657 54.802 6.788 54.909 7.012 C 55.224 7.673 56.011 8.097 56.925 8.097 C 57.681 8.097 58.31 7.861 58.766 7.406 C 59.162 7.01 59.329 6.639 59.331 6.153 C 59.333 5.842 59.314 5.747 59.228 5.632 C 58.95 5.258 58.505 5.197 57.95 5.456 C 57.579 5.63 57.337 5.661 57.291 5.54 C 57.255 5.447 57.394 5.285 57.596 5.183 C 57.947 5.007 58.167 4.7 58.166 4.39 C 58.166 4.002 57.916 3.785 57.265 3.608 C 56.78 3.475 56.52 3.155 56.796 3.029 C 56.931 2.968 57.037 3.011 57.338 3.252 C 57.494 3.377 57.582 3.407 57.845 3.423 C 58.121 3.441 58.193 3.426 58.387 3.313 C 59.146 2.868 59.301 1.69 58.657 1.264 C 58.216 0.972 57.314 0.869 56.582 1.028 M 25.801 3.441 C 25.663 3.548 25.612 3.759 25.613 4.217 C 25.613 4.76 25.679 4.997 25.885 5.204 C 26.454 5.772 27.127 4.782 26.735 3.953 C 26.571 3.606 26.365 3.426 26.1 3.398 C 25.965 3.383 25.854 3.399 25.801 3.441 M 44.508 4.106 C 44.336 4.198 44.172 4.514 44.172 4.75 C 44.172 5.096 44.455 5.37 44.738 5.299 C 45.055 5.219 45.351 4.763 45.291 4.445 C 45.247 4.21 45.041 4.027 44.823 4.03 C 44.724 4.031 44.582 4.065 44.508 4.106 M 24.383 12.598 L 24.396 13.829 L 24.57 13.829 L 24.744 13.829 L 24.744 12.613 L 24.744 11.397 L 24.557 11.382 L 24.37 11.366 L 24.383 12.598 M 26.158 12.613 L 26.158 13.854 L 26.332 13.854 L 26.506 13.854 L 26.506 13.112 C 26.506 12.705 26.524 12.359 26.548 12.345 C 26.57 12.331 26.746 12.659 26.938 13.074 L 27.287 13.829 L 27.504 13.829 L 27.721 13.829 L 27.721 12.613 L 27.721 11.397 L 27.535 11.382 L 27.349 11.366 L 27.349 12.114 C 27.349 12.525 27.331 12.861 27.309 12.861 C 27.286 12.861 27.126 12.554 26.952 12.179 C 26.778 11.804 26.615 11.469 26.589 11.435 C 26.564 11.4 26.457 11.373 26.351 11.373 L 26.158 11.373 L 26.158 12.613 M 29.122 11.403 C 29.072 11.453 29.079 13.716 29.129 13.796 C 29.153 13.833 29.233 13.855 29.315 13.845 L 29.458 13.829 L 29.472 13.097 C 29.479 12.694 29.504 12.365 29.526 12.365 C 29.549 12.365 29.726 12.7 29.92 13.109 L 30.273 13.854 L 30.474 13.854 L 30.674 13.854 L 30.674 12.613 L 30.674 11.373 L 30.5 11.373 L 30.327 11.373 L 30.327 12.121 C 30.327 12.606 30.309 12.863 30.276 12.852 C 30.249 12.843 30.074 12.512 29.889 12.117 L 29.552 11.397 L 29.354 11.382 C 29.246 11.374 29.141 11.384 29.122 11.403 M 32.684 11.419 C 32.521 11.486 32.304 11.73 32.197 11.968 C 32.122 12.136 32.098 12.296 32.098 12.613 C 32.099 13.082 32.18 13.339 32.401 13.574 C 32.859 14.062 33.604 13.89 33.878 13.233 C 34 12.943 33.992 12.251 33.863 11.964 C 33.754 11.72 33.538 11.483 33.363 11.416 C 33.222 11.362 32.819 11.364 32.684 11.419 M 35.389 11.484 C 35.389 11.606 35.904 13.559 35.985 13.745 C 36.026 13.84 36.066 13.857 36.22 13.844 L 36.405 13.829 L 36.714 12.688 C 36.885 12.06 37.024 11.506 37.025 11.456 C 37.026 11.383 36.993 11.369 36.841 11.382 L 36.656 11.397 L 36.448 12.159 C 36.252 12.876 36.206 13.006 36.166 12.956 C 36.157 12.945 36.088 12.701 36.013 12.415 C 35.727 11.318 35.75 11.373 35.559 11.373 C 35.415 11.373 35.389 11.39 35.389 11.484 M 39.035 11.435 C 38.928 11.734 38.421 13.744 38.44 13.795 C 38.455 13.835 38.526 13.854 38.622 13.844 C 38.759 13.831 38.79 13.801 38.85 13.618 L 38.92 13.407 L 39.236 13.407 C 39.569 13.407 39.596 13.423 39.681 13.68 C 39.718 13.792 39.766 13.833 39.873 13.845 C 39.952 13.854 40.035 13.842 40.059 13.818 C 40.092 13.785 39.687 12.142 39.478 11.459 C 39.446 11.355 39.072 11.334 39.035 11.435 M 41.493 11.544 C 41.493 11.726 41.521 11.744 41.84 11.78 L 41.964 11.794 L 41.989 12.812 L 42.014 13.829 L 42.187 13.829 L 42.361 13.829 L 42.374 12.799 L 42.388 11.769 L 42.573 11.769 C 42.822 11.768 42.893 11.713 42.874 11.541 L 42.857 11.397 L 42.175 11.383 L 41.493 11.369 L 41.493 11.544 M 44.283 12.598 L 44.296 13.829 L 44.47 13.829 L 44.644 13.829 L 44.644 12.613 L 44.644 11.397 L 44.457 11.382 L 44.27 11.366 L 44.283 12.598 M 46.573 11.465 C 46.195 11.702 46.031 12.12 46.068 12.751 C 46.114 13.512 46.528 13.935 47.13 13.838 C 47.423 13.79 47.629 13.625 47.78 13.318 C 47.899 13.075 47.919 12.975 47.919 12.613 C 47.919 12.261 47.897 12.145 47.789 11.914 C 47.615 11.543 47.418 11.406 47.028 11.384 C 46.795 11.371 46.694 11.389 46.573 11.465 M 49.333 12.613 L 49.333 13.854 L 49.507 13.854 L 49.681 13.854 L 49.681 13.112 C 49.681 12.705 49.699 12.359 49.723 12.345 C 49.745 12.331 49.921 12.659 50.113 13.074 L 50.462 13.829 L 50.679 13.829 L 50.897 13.829 L 50.897 12.613 L 50.897 11.397 L 50.71 11.382 L 50.524 11.366 L 50.524 12.114 C 50.524 12.525 50.506 12.861 50.484 12.861 C 50.461 12.861 50.301 12.554 50.127 12.179 C 49.953 11.804 49.79 11.469 49.765 11.435 C 49.739 11.4 49.632 11.373 49.526 11.373 L 49.333 11.373 L 49.333 12.613 M 52.547 11.426 C 52.343 11.545 52.246 11.989 52.359 12.286 C 52.385 12.355 52.553 12.555 52.731 12.73 C 53.024 13.017 53.055 13.068 53.055 13.247 C 53.055 13.434 53 13.506 52.856 13.506 C 52.771 13.506 52.658 13.347 52.658 13.227 C 52.658 13.115 52.642 13.105 52.472 13.119 C 52.293 13.134 52.286 13.14 52.299 13.308 C 52.317 13.557 52.4 13.689 52.598 13.783 C 52.949 13.949 53.362 13.792 53.453 13.456 C 53.547 13.106 53.476 12.929 53.069 12.502 C 52.751 12.168 52.704 12.096 52.717 11.961 C 52.746 11.668 53.039 11.64 53.106 11.923 C 53.126 12.009 53.173 12.047 53.274 12.059 C 53.476 12.082 53.519 12.016 53.455 11.778 C 53.379 11.496 53.204 11.372 52.887 11.374 C 52.748 11.375 52.594 11.398 52.547 11.426 M 32.724 11.881 C 32.479 12.149 32.408 12.554 32.53 12.975 C 32.623 13.295 32.791 13.457 33.031 13.457 C 33.271 13.457 33.44 13.295 33.533 12.975 C 33.616 12.687 33.599 12.301 33.494 12.096 C 33.374 11.862 33.242 11.769 33.031 11.769 C 32.881 11.769 32.798 11.8 32.724 11.881 M 46.666 11.881 C 46.508 12.049 46.455 12.236 46.455 12.621 C 46.455 13.161 46.64 13.457 46.976 13.457 C 47.06 13.457 47.18 13.42 47.243 13.376 C 47.608 13.12 47.651 12.235 47.316 11.899 C 47.143 11.726 46.819 11.717 46.666 11.881 M 39.117 12.635 C 39.027 12.99 39.035 13.01 39.266 13.01 C 39.47 13.01 39.471 13.009 39.444 12.849 C 39.366 12.384 39.206 12.279 39.117 12.635" stroke="none" fill="#000000" fill-rule="evenodd" style=""></path>
</svg>